<svg xmlns="http://www.w3.org/2000/svg" viewBox="0 0 271.06 85"><defs><style>.cls-1{fill:#545253;}.cls-2{fill:#ed1c24;}.cls-3{fill:#555454;}.cls-4{fill:#ef3b2d;}</style></defs><title>Asset 3</title><g id="Layer_2" data-name="Layer 2"><g id="Layer_1-2" data-name="Layer 1"><path class="cls-1" d="M100.13,66.32V48.79h3.41V66.32Z"/><path class="cls-1" d="M116.05,55.07V66.32h-3.41V48.76h2.64l9.15,11.52V48.79h3.41V66.32h-2.77Z"/><path class="cls-1" d="M136.95,66.32V48.79h3.41V66.32Z"/><path class="cls-1" d="M162.59,51.75H157V66.32h-3.41V51.75H148v-3h14.61Z"/><path class="cls-1" d="M170.23,66.32V48.79h3.41V66.32Z"/><path class="cls-1" d="M181,66.32l6.92-17.56h2.77l6.9,17.56h-3.61l-1.61-4.38h-6.16l-1.61,4.38Zm8.31-13.87-2.52,7.1h5Z"/><path class="cls-1" d="M216.37,51.75h-5.59V66.32h-3.41V51.75h-5.61v-3h14.61Z"/><path class="cls-1" d="M224,66.32V48.79h3.41V66.32Z"/><path class="cls-1" d="M238.28,48.76,243,62l4.7-13.28h3.58l-6.85,17.56h-2.87l-6.9-17.56Z"/><path class="cls-1" d="M270.8,63.33v3H258.6V48.76h12v3H262V56h7.39v2.77H262v4.57Z"/><path class="cls-2" d="M100.24,36.84V18.49H108a5.21,5.21,0,0,1,2.34.53,6.05,6.05,0,0,1,1.85,1.4,6.62,6.62,0,0,1,1.21,2,5.92,5.92,0,0,1,.44,2.21,6.37,6.37,0,0,1-.41,2.26,6.26,6.26,0,0,1-1.16,2,5.72,5.72,0,0,1-1.81,1.37,5.23,5.23,0,0,1-2.33.52H103.8v6.15Zm3.57-9.28h4.13a2,2,0,0,0,1.64-.8,3.32,3.32,0,0,0,.66-2.17,3.58,3.58,0,0,0-.21-1.25,3.06,3.06,0,0,0-.54-.94,2.17,2.17,0,0,0-.79-.58,2.3,2.3,0,0,0-.92-.19h-4Z"/><path class="cls-2" d="M138.94,18.49V36.84H135.4V29h-8.32v7.83h-3.57V18.49h3.57v7.42h8.32V18.49Z"/><path class="cls-2" d="M150,36.84V18.52h3.57V36.84Z"/><path class="cls-2" d="M175.58,23.3a4.46,4.46,0,0,0-.66-.49,8,8,0,0,0-1.16-.61,10.12,10.12,0,0,0-1.49-.5,6.49,6.49,0,0,0-1.63-.21,3.65,3.65,0,0,0-2.2.54,1.8,1.8,0,0,0-.72,1.52,1.57,1.57,0,0,0,.27.94,2.34,2.34,0,0,0,.79.66,6.62,6.62,0,0,0,1.3.52q.79.23,1.82.49,1.34.36,2.44.78a6.61,6.61,0,0,1,1.86,1,4.27,4.27,0,0,1,1.18,1.49,4.93,4.93,0,0,1,.41,2.13,5.31,5.31,0,0,1-.56,2.52,4.72,4.72,0,0,1-1.49,1.69,6.36,6.36,0,0,1-2.17.94A11.08,11.08,0,0,1,171,37a13.8,13.8,0,0,1-4.08-.62,12.58,12.58,0,0,1-3.62-1.76l1.58-3.08a4.9,4.9,0,0,0,.84.61,12.65,12.65,0,0,0,1.43.75,11.13,11.13,0,0,0,1.83.63,8.28,8.28,0,0,0,2.07.26Q174,33.84,174,32a1.59,1.59,0,0,0-.34-1,2.85,2.85,0,0,0-1-.72,9.11,9.11,0,0,0-1.5-.57q-.88-.26-2-.54A16.7,16.7,0,0,1,167,28.3a6.21,6.21,0,0,1-1.62-1,3.63,3.63,0,0,1-1-1.34,4.74,4.74,0,0,1-.32-1.83,5.7,5.7,0,0,1,.52-2.48A5,5,0,0,1,166,19.83a6.48,6.48,0,0,1,2.13-1.1,8.81,8.81,0,0,1,2.61-.37,10.13,10.13,0,0,1,3.57.61,13.28,13.28,0,0,1,2.84,1.43Z"/><path class="cls-2" d="M203.18,18.49V36.84h-3.54V29h-8.32v7.83h-3.57V18.49h3.57v7.42h8.32V18.49Z"/><path class="cls-2" d="M214.24,36.84V18.52h3.57V36.84Z"/><path class="cls-2" d="M232.43,25.08V36.84h-3.57V18.49h2.76l9.56,12v-12h3.57V36.84h-2.89Z"/><path class="cls-2" d="M268.12,34.77a6.6,6.6,0,0,1-4.88,2.2,7.3,7.3,0,0,1-3.31-.78,8.83,8.83,0,0,1-2.7-2.08,9.91,9.91,0,0,1-1.81-3,9.74,9.74,0,0,1-.66-3.54,9.57,9.57,0,0,1,.66-3.55,9.13,9.13,0,0,1,1.83-2.92,8.86,8.86,0,0,1,2.76-2,8.76,8.76,0,0,1,7.74.35,7,7,0,0,1,2.69,2.92l-2.66,2a4.94,4.94,0,0,0-1.85-2.09,4.86,4.86,0,0,0-2.6-.72,4.28,4.28,0,0,0-2.05.49,4.77,4.77,0,0,0-1.56,1.34,6.59,6.59,0,0,0-1,2,7.52,7.52,0,0,0-.36,2.35,7.35,7.35,0,0,0,.39,2.42,6.06,6.06,0,0,0,1.08,2,5.21,5.21,0,0,0,1.64,1.3,4.52,4.52,0,0,0,2.08.48,5.86,5.86,0,0,0,4.57-2.51V30h-3.7V27.4h6.64v9.43h-2.95Z"/><path class="cls-3" d="M42.5,85A42.5,42.5,0,1,1,85,42.5,42.55,42.55,0,0,1,42.5,85Zm0-81A38.5,38.5,0,1,0,81,42.5,38.54,38.54,0,0,0,42.5,4Z"/><path class="cls-4" d="M47.65,57l8.12-4.55c.89,1-1,2.33.33,2.93,1,.46,2.1-.36,2.69-1.32a3,3,0,0,0-.27-3.78c-1-1.21-2.59-1.25-4-1.69s-2.82-.73-4.2-1.19c-1.7-.57-3.31-1.05-4.76.55a1.39,1.39,0,0,1-1.06.41c-5-.8-6.91,3.41-9.81,5.94-1.64,1.43-3.13,2.85-5.51,2.89A6.44,6.44,0,0,1,23,53.62a6.2,6.2,0,0,1,.58-7.14c1.48-1.87,3.31-3.46,5.37-5.58V50c-1.19.18-1.35-1.45-2.54-1.28-1.23,1.58-.82,3.06.68,4.22s3.07.8,4.42-.54c1.52-1.51,3-3,4.62-4.46,1.31-1.21,2.54-2.38,1.84-4.44a1.69,1.69,0,0,1,.21-1.41c2.55-2.9.83-5.78,0-8.66-.42-1.5-1-3-1.26-4.49a6.71,6.71,0,0,1,4.28-7.46,6.87,6.87,0,0,1,8.3,3.08,29.57,29.57,0,0,1,1.93,7.62l-7.42-4c0-1.5,2.73-.43,2.05-2.17-.5-1.28-1.91-1.57-3.26-1.23-1.64.41-2.71,1.66-2.38,3.19.72,3.31,1.84,6.54,2.8,9.79.2.69.84.75,1.37.92,1,.31,2.12.72,2.34,1.59.89,3.54,4,3.45,6.55,4.3,1.47.49,3,.79,4.48,1.27a6.58,6.58,0,0,1,4.61,8.22,6.42,6.42,0,0,1-7.84,4.74C52.59,58.42,50.47,57.74,47.65,57ZM44.47,43.46a1.31,1.31,0,0,0-1.54-1.34,1.39,1.39,0,0,0-1.3,1.64,1.32,1.32,0,0,0,1.43,1.17A1.27,1.27,0,0,0,44.47,43.46Z"/></g></g></svg>